<svg width="40" height="22" viewBox="0 0 40 22" fill="none" xmlns="http://www.w3.org/2000/svg">
<path d="M5.55555 22V6.52542L11.0185 0L5.55555 22Z" fill="#151617"/>
<path d="M7.68518 21.2542L12.6852 5.59322L18.2407 1.86441L7.68518 21.2542Z" fill="#151617"/>
<path d="M10.5556 20.6949L18.2407 8.01695L23.9815 5.59322L10.5556 20.6949Z" fill="#151617"/>
<path d="M13.4259 19.2034L23.1481 10.5339L28.4259 8.76271L13.4259 19.2034Z" fill="#151617"/>
<path d="M18.2407 19.2034L25.9259 13.8898L31.7593 12.678L27.963 15.1949L18.2407 19.2034Z" fill="#151617"/>
<path d="M22.7778 19.6695L28.8889 17.0593H34.0741L30.2778 18.4576L22.7778 19.6695Z" fill="#151617"/>
<path d="M27.963 20.6949L32.963 19.6695H36.6667L32.963 20.6949H27.963Z" fill="#151617"/>
<path d="M31.7593 22L35.0926 21.2542L40 22H31.7593Z" fill="#151617"/>
<path d="M4.53704 22L1.66667 14.7288L3.7037 10.5339L4.53704 22Z" fill="#151617"/>
<path d="M2.77778 22L0 21.2542L0.648148 17.339L2.77778 22Z" fill="#151617"/>
</svg>
